<svg xmlns="http://www.w3.org/2000/svg" viewBox="0 0 500 500"><g id="freepik--background-simple--inject-56"><path d="M351.4,298C270.88,289.6,145.92,455.27,80,360.33c-49.67-71.5,73.26-239.08,148.42-222.71,33.57,7.31,33.67,39.24,66.68,48.18C344,199.05,390.14,149.14,434,197.38c23.54,25.89,35.25,93.39,7.53,120C397.56,359.51,392.41,302.22,351.4,298Z" style="fill:#407BFF"></path><path d="M351.4,298C270.88,289.6,145.92,455.27,80,360.33c-49.67-71.5,73.26-239.08,148.42-222.71,33.57,7.31,33.67,39.24,66.68,48.18C344,199.05,390.14,149.14,434,197.38c23.54,25.89,35.25,93.39,7.53,120C397.56,359.51,392.41,302.22,351.4,298Z" style="fill:#fff;opacity:0.9"></path></g><g id="freepik--Shadow--inject-56"><ellipse id="freepik--path--inject-56" cx="250" cy="416.24" rx="193.89" ry="11.32" style="fill:#f5f5f5"></ellipse></g><g id="freepik--Bowl--inject-56"><path d="M189.7,395.08A7.89,7.89,0,0,0,184,388.3c-.51-3.69-3.92-6.48-8.11-6.77a5.51,5.51,0,0,0-2.42-1.52c-.35-2.55-2.91-4.43-5.92-4.24a5.76,5.76,0,0,0-5,3.31,5.76,5.76,0,0,0-5.4-2.64,6.49,6.49,0,0,0-1.17.19,6,6,0,0,0-4.61-1.65,5.56,5.56,0,0,0-5.24,4.1,7.44,7.44,0,0,0-1.5-.07c-3.6.24-6.36,2.95-6.16,6.08a5.17,5.17,0,0,0,.41,1.6,9.91,9.91,0,0,0-1.09,0c-5.77.37-10.19,4.72-9.87,9.72s5.26,8.75,11,8.38a11.38,11.38,0,0,0,6.65-2.62,9.91,9.91,0,0,0,14.83-.4,10,10,0,0,0,13.89-.4,9.72,9.72,0,0,0,6.86,2.14C186.14,403.2,190,399.42,189.7,395.08Z" style="fill:#407BFF"></path><path d="M189.7,395.08A7.89,7.89,0,0,0,184,388.3c-.51-3.69-3.92-6.48-8.11-6.77a5.51,5.51,0,0,0-2.42-1.52c-.35-2.55-2.91-4.43-5.92-4.24a5.76,5.76,0,0,0-5,3.31,5.76,5.76,0,0,0-5.4-2.64,6.49,6.49,0,0,0-1.17.19,6,6,0,0,0-4.61-1.65,5.56,5.56,0,0,0-5.24,4.1,7.44,7.44,0,0,0-1.5-.07c-3.6.24-6.36,2.95-6.16,6.08a5.17,5.17,0,0,0,.41,1.6,9.91,9.91,0,0,0-1.09,0c-5.77.37-10.19,4.72-9.87,9.72s5.26,8.75,11,8.38a11.38,11.38,0,0,0,6.65-2.62,9.91,9.91,0,0,0,14.83-.4,10,10,0,0,0,13.89-.4,9.72,9.72,0,0,0,6.86,2.14C186.14,403.2,190,399.42,189.7,395.08Z" style="opacity:0.2"></path><rect x="111.22" y="401.53" width="8.58" height="1" transform="translate(-300.68 360.15) rotate(-68.22)" style="fill:#407BFF"></rect><path d="M193.94,394.6H124.1a3.54,3.54,0,0,0-3.28,2.22L115,411.39a3.54,3.54,0,0,0,3.29,4.85h81.47a3.54,3.54,0,0,0,3.28-4.85l-5.82-14.57A3.53,3.53,0,0,0,193.94,394.6Z" style="fill:#407BFF"></path></g><g id="freepik--Dog--inject-56"><path d="M331.62,242.43c12.73,2.62,21.58,8.83,25.14,16.67s-.15,18.79-.85,25.16,1.93,26.14-3.38,45.74-8.24,31.21-6,38.89-.18,26.79-.56,31.2,4.23,10.86-3.82,11.6a66.37,66.37,0,0,1-19.17-1.1c-.23-6.5,8.53-9.19,11.43-14.95s1.95-14.22,1.15-17.28-.07-8.21.34-11.52-6.52-24.26-11.94-32.35S304,316.24,307.33,296,331.62,242.43,331.62,242.43Z" style="fill:#407BFF"></path><path d="M331.62,242.43c12.73,2.62,21.58,8.83,25.14,16.67s-.15,18.79-.85,25.16,1.93,26.14-3.38,45.74-8.24,31.21-6,38.89-.18,26.79-.56,31.2,4.23,10.86-3.82,11.6a66.37,66.37,0,0,1-19.17-1.1c-.23-6.5,8.53-9.19,11.43-14.95s1.95-14.22,1.15-17.28-.07-8.21.34-11.52-6.52-24.26-11.94-32.35S304,316.24,307.33,296,331.62,242.43,331.62,242.43Z" style="opacity:0.30000000000000004"></path><path d="M376.23,250.92c9.27.52,20.82,12.7,24.37,26.15s10.32,43.46,10.15,57.33-6.5,23.16-9.5,37c-12.76,4.1-20.57-50.53-23.46-74A293.53,293.53,0,0,1,376.23,250.92Z" style="fill:#407BFF"></path><path d="M376.23,250.92c9.27.52,20.82,12.7,24.37,26.15s10.32,43.46,10.15,57.33-6.5,23.16-9.5,37c-12.76,4.1-20.57-50.53-23.46-74A293.53,293.53,0,0,1,376.23,250.92Z" style="opacity:0.30000000000000004"></path><path d="M212.12,277s-17.8-4.57-33.33-.45a1.18,1.18,0,0,0-.17,2.2c9.25,3.34,18.65,13.1,18.65,13.1Z" style="fill:#407BFF"></path><path d="M212.12,277s-17.8-4.57-33.33-.45a1.18,1.18,0,0,0-.17,2.2c9.25,3.34,18.65,13.1,18.65,13.1Z" style="opacity:0.30000000000000004"></path><path d="M387.93,372.15c-2.82-7.88-.93-19.77,2.62-39.89s-.61-40.39-.44-46.92,2.86-17.77-1.22-25.81c-3.59-7.08-8.93-13.65-18.7-16.95-11-4.83-14.15-1.89-22.51-3-11.45-1.5-21.66-3.11-28.3-4.69-9.25-2.19-10.13-2.81-18.54-2.47s-16.39,4.05-22.65,5.24c-7.31,1.38-12.34,1.34-16.25,3.43l0,0h0l-.18.1c-8.28,4.5-25.27,20-31.7,27.7-4.17,1-11.34,3.43-22.44,9.21-19.93,10.39-22,32.17-22,32.17l-21.26,24.64s3.51,4.76,14,4.29,21.12-3.75,28.11-8.25,42.76.46,42.76.46l-4.8-6.44A181.51,181.51,0,0,0,264,317.87c.24,10.51,7.19,35,6,56.74-.46,8.86,1.81,9.82,2.43,17.53.26,3.23.52,10.33-4.08,10.88-9.8,1.19-5.86,10.55-5.86,10.55s14,3,18.5-.49a14.53,14.53,0,0,0,.65,3.48s18.12,5,21.65-1.87c6-11.77,1.78-22.08.83-27.36s1.36-7.15-.3-14.82,1.34-40.27,7.36-49.07c.12-.17.22-.36.33-.54a85.9,85.9,0,0,0,36-6.66c4.48,9.16,11.92,15.34,15.69,20.63,5.9,8.3,14.32,29.79,14.18,33.19s-.41,8.67.61,11.81,2.62,11.82.28,17.72-10.59,8.68-9.84,15.34a61,61,0,0,0,18.64,1.13c7.72-.75,2.74-7.37,2.75-11.9S390.76,380,387.93,372.15ZM287.82,404.93a9.09,9.09,0,0,0-3.43,1c1.54-7.62-.82-16.38-1.64-20.45-1.07-5.27,1.21-7.16-.63-14.81-1.56-6.48,1.15-33.33,3.83-46.91,1.46,13.1,6.25,33.3,4.85,52.39-.66,8.86.87,10.2,1.32,17.9C292.31,397.31,292.42,404.41,287.82,404.93Z" style="fill:#407BFF"></path><path d="M307.17,288.22a25.65,25.65,0,0,1,6.32,17.69C320.42,299.89,314.92,289.67,307.17,288.22Z" style="opacity:0.1"></path><path d="M284.94,322.57a27.81,27.81,0,0,1-14.16-5.29C272.17,324.27,280,326,284.94,322.57Z" style="opacity:0.1"></path><path d="M372.15,294.72s-7.88,13.2-20.31,20.94C358.9,316,374,311.17,372.15,294.72Z" style="opacity:0.1"></path><path d="M231,309.24c15.93-5.75-7.94-19.56-19.7-12.61S185.81,325.56,231,309.24Z" style="opacity:0.1"></path><path d="M218,306.29c3.58-3.25-8.92-2.77-10.71.15S207.86,315.5,218,306.29Z" style="opacity:0.30000000000000004"></path><path d="M170.25,328c4.1,2.9,4.12,7.44,1.79,10.83-5.7-1.08-7.77-3.89-7.77-3.89Z" style="opacity:0.30000000000000004"></path><path d="M229.27,277.81c6.42-2.34,18-5.74,28.76-4.66a1.21,1.21,0,0,1,.33,2.22c-7.39,4.28-14.58,13.22-17.05,16.48a1.38,1.38,0,0,1-2,.3l-10.92-8.91A3.28,3.28,0,0,1,229.27,277.81Z" style="opacity:0.30000000000000004"></path></g></svg>